<svg xmlns="http://www.w3.org/2000/svg" viewBox="0 0 1200 630" role="img" aria-label="ScreenCam product preview">
  <rect width="1200" height="630" fill="#050505"/>
  <path d="M0 520h1200M0 420h1200M0 320h1200M0 220h1200M0 120h1200M160 0v630M320 0v630M480 0v630M640 0v630M800 0v630M960 0v630" stroke="#202020" stroke-width="1"/>
  <text x="72" y="122" fill="#f4f1e8" font-family="-apple-system,BlinkMacSystemFont,Segoe UI,sans-serif" font-size="72" font-weight="800">ScreenCam</text>
  <text x="76" y="172" fill="#9a9a92" font-family="-apple-system,BlinkMacSystemFont,Segoe UI,sans-serif" font-size="28" font-weight="600">Record the desktop. Reframe the story.</text>
  <rect x="78" y="232" width="760" height="302" rx="22" fill="#101010" stroke="#303030" stroke-width="2"/>
  <rect x="104" y="264" width="512" height="184" rx="12" fill="#f4f1e8"/>
  <rect x="124" y="284" width="472" height="144" rx="8" fill="#171717"/>
  <rect x="638" y="264" width="174" height="184" rx="12" fill="#161616" stroke="#2c2c2c"/>
  <path d="M666 306h92M666 342h120M666 378h76" stroke="#cbff4d" stroke-width="10" stroke-linecap="round"/>
  <rect x="104" y="468" width="708" height="38" rx="8" fill="#191919" stroke="#303030"/>
  <rect x="130" y="482" width="180" height="10" rx="5" fill="#ff405c"/>
  <rect x="330" y="482" width="240" height="10" rx="5" fill="#36e3ff"/>
  <rect x="590" y="482" width="154" height="10" rx="5" fill="#cbff4d"/>
  <rect x="380" y="70" width="318" height="56" rx="28" fill="#151515" stroke="#3a3a3a"/>
  <circle cx="420" cy="98" r="16" fill="#ff405c"/>
  <rect x="456" y="88" width="56" height="20" rx="10" fill="#252525"/>
  <rect x="528" y="88" width="56" height="20" rx="10" fill="#252525"/>
  <rect x="600" y="88" width="56" height="20" rx="10" fill="#cbff4d"/>
  <text x="882" y="394" fill="#f4f1e8" font-family="-apple-system,BlinkMacSystemFont,Segoe UI,sans-serif" font-size="48" font-weight="800">Native macOS</text>
  <text x="884" y="444" fill="#f4f1e8" font-family="-apple-system,BlinkMacSystemFont,Segoe UI,sans-serif" font-size="48" font-weight="800">screen studio</text>
  <path d="M884 488h218" stroke="#ffb800" stroke-width="8" stroke-linecap="round"/>
</svg>
